# xmcd
#
# Track frame offsets:
#       150
#       13846
#       32753
#       46665
#       62317
#       78606
#       95480
#       110528
#       126723
#       148975
#       162695
#       183613
#       201537
#       214668
#       230934
#
# Disc length: 3330 seconds
#
# Revision: 5
# Processed by: cddbd v1.4PL0 Copyright (c) Steve Scherf et al.
# Submitted via: CD-DA_X-Tractor v0.21
#
DISCID=ea0d000f
DTITLE=Tim McGraw - Greatest Hits
DYEAR=1900
DGENRE=
TTITLE0=Indian Outlaw
TTITLE1=Don't Take the Girl
TTITLE2=She Never Lets It Go to Her Heart
TTITLE3=I Like It, I Love It
TTITLE4=Just to See You Smile
TTITLE5=It's Your Love - w/Faith Hill
TTITLE6=Where The Green Grass Grows
TTITLE7=For A Little While
TTITLE8=Please Remember Me
TTITLE9=Something Like That
TTITLE10=My Best Friend
TTITLE11=Maybe We Should Just Sleep On It
TTITLE12=Down On the Farm
TTITLE13=My Next Thirty Years
TTITLE14=Let's Make Love - w/Faith Hill
EXTD=
EXTT0=
EXTT1=
EXTT2=
EXTT3=
EXTT4=
EXTT5=
EXTT6=
EXTT7=
EXTT8=
EXTT9=
EXTT10=
EXTT11=
EXTT12=
EXTT13=
EXTT14=
PLAYORDER=
